<svg width="60" height="60" viewBox="0 0 60 60" fill="none" xmlns="http://www.w3.org/2000/svg">
<g clip-path="url(#clip0_44_763)">
<path d="M50 45C52.75 45 54.975 42.75 54.975 40L55 15C55 12.225 52.75 10 50 10H10C7.225 10 5 12.225 5 15V40C5 42.75 7.225 45 10 45H0V50H60V45H50ZM10 40V15H50V40V40.025L10 40ZM22.7417 24.8828C22.7417 22.3153 24.8318 20.2228 27.4018 20.2228C29.9692 20.2228 32.0618 22.3153 32.0618 24.8828C32.0618 27.4503 29.9692 29.5428 27.4018 29.5428C24.8318 29.5428 22.7417 27.4503 22.7417 24.8828ZM40.3218 35.4728L34.1167 29.2678C34.9442 28.0053 35.4343 26.5003 35.4343 24.8828C35.4343 20.4528 31.8317 16.8503 27.4018 16.8503C22.9718 16.8503 19.3667 20.4528 19.3667 24.8828C19.3667 29.3128 22.9718 32.9178 27.4018 32.9178C28.9918 32.9178 30.4642 32.4378 31.7118 31.6403L37.9343 37.8603L40.3218 35.4728Z" fill="#424242"/>
</g>
<defs>
<clipPath id="clip0_44_763">
<rect width="60" height="60" fill="white"/>
</clipPath>
</defs>
</svg>
