<svg width="60" height="60" viewBox="0 0 60 60" fill="none" xmlns="http://www.w3.org/2000/svg">
<g clip-path="url(#clip0_44_778)">
<path d="M49.9999 45C52.7499 45 54.9749 42.75 54.9749 40L54.9999 15C54.9999 12.225 52.7499 10 49.9999 10H9.99988C7.22488 10 4.99988 12.225 4.99988 15V40C4.99988 42.75 7.22488 45 9.99988 45H-0.00012207V50H59.9999V45H49.9999ZM9.99988 40V15H49.9999V40L44.0624 45H15.3124L9.99988 40Z" fill="#424242"/>
<path d="M22.1981 21.7904H27.1683L30.5872 30.122H30.7595L34.1784 21.7904H39.1486V36.5H35.2414V27.996H35.1265L31.8513 36.3851H29.4954L26.2202 27.9385H26.1053V36.5H22.1981V21.7904Z" fill="#424242"/>
</g>
<defs>
<clipPath id="clip0_44_778">
<rect width="60" height="60" fill="white"/>
</clipPath>
</defs>
</svg>
