<svg width="60" height="60" viewBox="0 0 60 60" fill="none" xmlns="http://www.w3.org/2000/svg">
<g clip-path="url(#clip0_44_770)">
<path d="M50 45C52.75 45 54.975 42.75 54.975 40L55 15C55 12.225 52.75 10 50 10H10C7.225 10 5 12.225 5 15V40C5 42.75 7.225 45 10 45H0V50H60V45H50ZM10 40V15H50V40L44.0625 45H15.3125L10 40Z" fill="#424242"/>
<path d="M32.6275 26.3871C32.5892 25.9083 32.4096 25.5348 32.0888 25.2667C31.7728 24.9985 31.2916 24.8645 30.6451 24.8645C30.2333 24.8645 29.8958 24.9147 29.6324 25.0153C29.3738 25.1111 29.1823 25.2427 29.0578 25.4103C28.9333 25.5779 28.8687 25.7694 28.8639 25.9849C28.8543 26.1621 28.8854 26.3225 28.9573 26.4661C29.0339 26.605 29.1536 26.7319 29.3164 26.8468C29.4792 26.9569 29.6875 27.0575 29.9413 27.1485C30.195 27.2394 30.4967 27.3208 30.8462 27.3927L32.0529 27.6512C32.8669 27.8236 33.5636 28.0511 34.143 28.3336C34.7224 28.6161 35.1964 28.9489 35.5651 29.3319C35.9338 29.7102 36.2043 30.1364 36.3767 30.6104C36.5539 31.0844 36.6449 31.6016 36.6497 32.1618C36.6449 33.129 36.4031 33.9478 35.9242 34.6182C35.4454 35.2886 34.7607 35.7985 33.8701 36.1481C32.9842 36.4976 31.9188 36.6724 30.6739 36.6724C29.3954 36.6724 28.2797 36.4832 27.3269 36.105C26.3788 35.7267 25.6414 35.1449 25.1147 34.3596C24.5927 33.5696 24.3294 32.5592 24.3246 31.3286H28.1169C28.1409 31.7787 28.2534 32.157 28.4545 32.4635C28.6556 32.7699 28.9381 33.0022 29.302 33.1602C29.6707 33.3182 30.1088 33.3972 30.6164 33.3972C31.0426 33.3972 31.3993 33.3445 31.6866 33.2392C31.9739 33.1338 32.1918 32.9878 32.3402 32.801C32.4886 32.6143 32.5652 32.4012 32.57 32.1618C32.5652 31.9368 32.491 31.7404 32.3474 31.5728C32.2085 31.4005 31.9787 31.2472 31.6579 31.1132C31.337 30.9743 30.9037 30.845 30.3578 30.7253L28.8926 30.4093C27.5902 30.1268 26.5631 29.6551 25.8114 28.9944C25.0644 28.3288 24.6933 27.4214 24.6981 26.2722C24.6933 25.3385 24.9423 24.5221 25.4451 23.823C25.9526 23.1191 26.6541 22.5709 27.5495 22.1782C28.4497 21.7856 29.4816 21.5893 30.6451 21.5893C31.8326 21.5893 32.8597 21.788 33.7264 22.1854C34.5931 22.5828 35.261 23.1431 35.7303 23.8661C36.2043 24.5843 36.4438 25.4247 36.4485 26.3871H32.6275Z" fill="#424242"/>
</g>
<defs>
<clipPath id="clip0_44_770">
<rect width="60" height="60" fill="white"/>
</clipPath>
</defs>
</svg>
